# xmcd CD database file
#
# Track frame offsets:
#	157
#	14491
#	28704
#	38475
#	50264
#	54552
#	64656
#	73625
#	84703
#	97726
#	103536
#	107408
#	114759
#	130814
#	138218
#	149143
#	159486
#	167507
#	175640
#	187443
#	190167
#
# Disc length: 2690 seconds
#
# Revision: 0
# Processed by: cddbd v1.5PL3 Copyright (c) Steve Scherf et al.
# Submitted via: CDex 1.51
#
DISCID=170a8015
DTITLE=Nitty Gritty Dirtband - Uncle Charlie and his dog Teddie
DYEAR=1968
DGENRE=Country
TTITLE0=Some of Shelley's blues
TTITLE1=Prodigal's return
TTITLE2=The cure
TTITLE3=Traveling mode
TTITLE4=Chicken reel
TTITLE5=Yukon railroad
TTITLE6=Livin' without you
TTITLE7=Clinch mountain backstep
TTITLE8=Rave on
TTITLE9=Billy in the low ground
TTITLE10=Jesse James
TTITLE11=Uncle Charlie interview
TTITLE12=Mr. Bojangles
TTITLE13=Opus
TTITLE14=Santa rosa
TTITLE15=Propinquity
TTITLE16=Uncle Charlie
TTITLE17=Randy Ltnn rag
TTITLE18=House at Poh corner
TTITLE19=Swanee river
TTITLE20=Uncle Charlie interview#2 the end/Spanish fandango
EXTD=YEAR: 1968
EXTT0=
EXTT1=
EXTT2=
EXTT3=
EXTT4=
EXTT5=
EXTT6=
EXTT7=
EXTT8=
EXTT9=
EXTT10=
EXTT11=
EXTT12=
EXTT13=
EXTT14=
EXTT15=
EXTT16=
EXTT17=
EXTT18=
EXTT19=
EXTT20=
PLAYORDER=
